<svg xmlns="http://www.w3.org/2000/svg" viewBox="0 0 64 64">
  <defs>
    <style>
      .a {
        fill: #0f09ef;
      }
    </style>
  </defs>
  <path class="a" d="M44.681,10.93977l.68279,29.67552L40.3089,36.01806l-6.69734-6.091-6.767,6.01-8.13019,7.22068.83979-30.64513L44.681,10.93977M52.63938,0c-.042,0-.0842.00131-.12676.004L11.48393,2.57219a2.06462,2.06462,0,0,0-1.914,2.0229l-1.569,57.25684A2.06424,2.06424,0,0,0,10.0515,64a1.977,1.977,0,0,0,1.32542-.51545L33.53164,43.80824,52.605,61.15484a1.977,1.977,0,0,0,1.34295.53162,2.06351,2.06351,0,0,0,2.05139-2.13869L54.67613,2.03625A2.06159,2.06159,0,0,0,52.63938,0Z"/>
</svg>
