<svg xmlns="http://www.w3.org/2000/svg" viewBox="0 0 100 32" width="100">
  <defs>
    <style>
      .a {
        fill: #0f09ef;
      }
    </style>
  </defs>
  <g>
    <path class="a" d="M48.6474,23.69232a5.56253,5.56253,0,0,1-4.33669-1.78969V28H40V8.79975h4.05083v1.5826h.078A5.577,5.577,0,0,1,48.62141,8.307c4.466,0,7.03683,3.65855,7.03683,7.83513C55.65824,20.16487,52.85415,23.69232,48.6474,23.69232Zm-.90892-11.36385A3.5857,3.5857,0,0,0,44.1288,16.013a3.60969,3.60969,0,1,0,7.21873,0A3.58557,3.58557,0,0,0,47.73848,12.32847Z"/>
    <path class="a" d="M57.31635,23.19962V4h4.3107V23.19962Z"/>
    <path class="a" d="M70.79229,23.64039A7.519,7.519,0,0,1,63.02783,15.987a7.76494,7.76494,0,0,1,15.5283,0A7.51886,7.51886,0,0,1,70.79229,23.64039Zm0-11.286A3.52458,3.52458,0,0,0,67.33853,15.987a3.45783,3.45783,0,1,0,6.90689,0A3.52446,3.52446,0,0,0,70.79229,12.35443Z"/>
    <path class="a" d="M85.25195,12.06882v11.1308H80.94188V12.06882H78.81219V8.79975h2.12969V4h4.31007V8.79975h2.07771v3.26907Z"/>
    <path class="a" d="M94.1307,23.69232c-3.012,0-5.53084-1.60857-5.868-4.77378h4.28472a1.50414,1.50414,0,0,0,1.63529,1.32359c.64905,0,1.506-.36351,1.506-1.11587,0-1.03733-1.16879-1.34892-1.94714-1.6605-.62369-.20772-1.24612-.41544-1.86981-.64849-1.71389-.62316-3.42777-1.7384-3.42777-3.76241,0-3.00942,2.80408-4.74782,5.58281-4.74782,2.88268,0,5.24561,1.47875,5.53083,4.5401H95.32484c-.02535-.80429-.59707-1.08927-1.35007-1.08927-.57045,0-1.22076.311-1.22076.96008,0,2.25706,7.246.9854,7.246,6.0714C100,22.03182,97.06535,23.69232,94.1307,23.69232Z"/>
  </g>
  <path class="a" d="M18.34049,5.46989l.34139,14.83775L16.15445,18.009l-3.34867-3.04551-3.38351,3.005-4.0651,3.61035L5.77706,6.2563l12.56343-.78641M22.31969,0c-.021,0-.0421.00065-.06338.002L1.742,1.28609A1.03231,1.03231,0,0,0,.785,2.29754L.00044,30.926A1.03211,1.03211,0,0,0,1.02575,32a.98848.98848,0,0,0,.66271-.25773l11.07736-9.83815,9.5367,8.6733a.98848.98848,0,0,0,.67148.26581,1.03176,1.03176,0,0,0,1.02569-1.06935L23.33806,1.01813A1.03079,1.03079,0,0,0,22.31969,0Z"/>
</svg>
